# xmcd
#
# Track frame offsets:
#	150
#	18792
#	46965
#	67882
#	90002
#	109480
#	130897
#	153442
#	170420
#	191880
#	213810
#	233430
#
# Disc length: 3440 seconds
#
# Revision: 6
# Processed by: cddbd v1.4PL0 Copyright (c) Steve Scherf et al.
# Submitted via: EasyCDDAExtractor 4.6.9.1
#
DISCID=8e0d6e0c
DTITLE=齐秦 - 旷世情歌全纪录 - Disc 1
DYEAR=2000
DGENRE=Blues
TTITLE0=无情的雨，无情的你
TTITLE1=爱情宣言
TTITLE2=往事随风
TTITLE3=悬崖
TTITLE4=这一次我绝不放手
TTITLE5=火柴天堂
TTITLE6=我拿什么爱你
TTITLE7=月亮代表我的心
TTITLE8=夜夜夜夜
TTITLE9=袖手旁观
TTITLE10=丝路
TTITLE11=缺口
EXTD=YEAR: 2000 ID3G: 0
EXTT0=
EXTT1=
EXTT2=
EXTT3=
EXTT4=
EXTT5=
EXTT6=
EXTT7=
EXTT8=
EXTT9=
EXTT10=
EXTT11=
PLAYORDER=
